<svg width="800" height="800" viewBox="0 0 800 800" fill="none" xmlns="http://www.w3.org/2000/svg">
<path d="M741.475 379.799C712.725 249.83 670.084 166.924 601.741 146.721C588.504 142.86 574.779 140.933 560.991 141.002C518.975 141.002 485.819 166.002 410.991 166.002C336.163 166.002 302.944 141.002 260.991 141.002C246.627 140.928 232.323 142.852 218.491 146.721C150.053 166.924 107.772 249.908 78.6937 379.799C49.0062 512.471 54.3812 617.299 112.412 637.424C153.037 651.486 189.366 622.408 223.772 579.611C262.834 530.861 310.944 515.861 410.991 515.861C511.038 515.861 557.272 530.861 596.397 579.611C630.772 622.44 668.444 651.158 707.991 637.674C772.084 615.783 771.178 514.033 741.475 379.799Z" stroke="white" stroke-width="50" stroke-miterlimit="10"/>
<path d="M234.68 266.363H371.203V293.512H265.637V333.453H355.285V358.941H265.637V419H234.68V266.363ZM467.492 266.363H547.961C559.68 266.363 569.836 267.633 578.43 270.172C587.023 272.711 594.152 276.389 599.816 281.207C605.48 285.96 609.68 291.786 612.414 298.688C615.214 305.589 616.613 313.368 616.613 322.027C616.613 330.165 615.246 337.685 612.512 344.586C609.777 351.487 605.578 357.477 599.914 362.555C594.315 367.568 587.219 371.507 578.625 374.371C570.031 377.171 559.875 378.57 548.156 378.57L498.449 378.473V419H467.492V266.363ZM548.742 351.715C554.602 351.715 559.712 351.031 564.074 349.664C568.501 348.232 572.18 346.246 575.109 343.707C578.104 341.103 580.318 337.978 581.75 334.332C583.247 330.621 583.996 326.52 583.996 322.027C583.996 312.978 581.034 305.947 575.109 300.934C569.25 295.855 560.461 293.316 548.742 293.316H498.449V351.715H548.742Z" fill="white"/>
</svg>
